<svg width="549" height="550" viewBox="0 0 549 550" fill="none" xmlns="http://www.w3.org/2000/svg">
<path fill-rule="evenodd" clip-rule="evenodd" d="M260.599 499.845C215.027 497.155 174.408 474.341 137.951 446.866C102.071 419.825 65.9445 388.44 54.9693 344.874C44.2952 302.503 68.6291 261.608 80.7018 219.615C93.3217 175.718 93.7369 125.5 127.028 94.2277C162.02 61.3567 212.6 49.523 260.599 50.6237C307.877 51.7079 350.344 74.1734 389.792 100.253C430.977 127.482 475.518 156.327 491.261 203.121C507.066 250.103 490.202 300.594 472.806 347.011C456.106 391.57 432.855 434.187 394.24 461.997C355.729 489.734 307.977 502.643 260.599 499.845Z" fill="#6EBDB0"/>
<path d="M489.305 272.513L489.261 272.582L489.392 272.615L489.305 272.513Z" fill="white"/>
<path d="M488.907 272.062L489.306 272.521C489.483 272.22 489.391 272.062 488.907 272.062Z" fill="white"/>
<path d="M64.8589 148.84C66.3925 149.76 67.8931 150.673 69.0752 151.076L64.8589 148.84Z" fill="white"/>
<path d="M64.8588 148.84C63.5049 147.971 62.0812 147.217 60.6022 146.585L64.8588 148.84Z" fill="white"/>
<path d="M77.5483 136.599C77.7825 137.109 80.1102 141.864 80.2896 142.098L77.5483 136.599Z" fill="white"/>
<path d="M92.0013 141.343C92.4514 140.342 94.3656 136.793 94.4937 135.844L92.0013 141.343Z" fill="white"/>
<path d="M101.876 150.779L100.976 151.329L101.876 150.779Z" fill="white"/>
<path d="M101.876 150.779L106.707 147.846C106.03 148.154 103.406 149.826 101.876 150.779Z" fill="white"/>
<path d="M503.934 245.452C512.151 245.246 520.536 245.085 526.868 243.985L503.934 245.452Z" fill="white"/>
<path d="M57.8611 381.262C64.9468 387.494 75.1655 397.906 84.1765 403.434C88.9857 406.366 89.015 408.566 91.6685 405.505C94.128 402.668 96.7925 401.45 94.8417 400.545C96.7888 400.717 110.327 381.629 110.345 381.534C111.001 377.996 108.168 377.222 105.093 377.134C107.641 375.45 110.085 373.614 112.413 371.636C116.549 374.638 120.301 376.5 122.328 375.668C130.036 372.493 174.886 338.023 202.914 318.48C203.888 325.782 204.894 330.922 205.747 330.922C219.999 330.922 230.913 330.324 242.508 329.797C257.203 349.303 273.867 361.07 338.232 382.417C338.232 382.417 338.839 381.211 340.062 378.879C342.785 380.192 346.423 381.622 349.142 381.515C346.8 382.072 344.611 380.507 343.784 381.706C343.334 382.355 343.326 386.241 343.326 389.1C343.326 390.566 341.826 400.175 341.13 400.97C340.3 401.898 339.019 402.341 336.006 404.526C334.575 405.56 331.871 406.172 331.333 408.753C331.128 409.735 330.235 412.052 330.458 413.185C329.418 414.864 328.108 421.18 333.968 420.927C342.078 420.561 354.947 424.271 360.946 417.936C369.598 408.804 370.678 404.134 376.545 393.803C378.327 390.665 384.597 379.081 378.785 377.835C376.896 377.431 376.793 376.189 374.861 376.871C374.389 375.602 372.665 374.579 369.32 372.515C364.031 369.242 352.484 360.887 353.15 368.85C351.21 367.676 349.205 366.615 347.144 365.671C347.759 364.542 348.405 363.362 349.084 362.13C346.997 359.432 322.366 346.572 304.508 328.741L373.931 328.162C371.574 320.599 343.074 268.44 313.15 221.755H313.882H313.124C307.718 213.323 302.261 205.057 296.907 197.274C323.314 207.722 351.47 216.542 366.366 223.782C367.098 224.149 367.768 222.008 368.313 218.807C379.956 219.361 378.462 233.508 390.544 227.972C391.05 228.205 391.568 228.41 392.096 228.584L392.703 228.779L393.069 229.035C395.833 230.89 407.709 235.924 413.199 237.262C410.934 243.758 407.973 250.004 405.784 258.846L413.635 252.897C413.635 251.925 417.895 239.296 419.411 234.311L419.777 234.446C417.617 240.414 415.458 246.206 413.873 252.897C410.579 257.094 401.846 260.408 407.373 261.361C424.341 264.294 470.153 277.858 480.412 277.858C481.568 277.858 488.219 273.998 489.221 272.564L488.394 272.348C490.693 270.585 494.367 254.752 496.446 245.906L503.898 245.433C501.398 245.495 498.913 245.561 496.505 245.657C497.149 242.925 497.628 240.891 497.859 240.231C498.514 238.189 499.04 236.107 499.433 233.999C503.074 233.86 506.61 233.57 508.14 233.079L499.59 233.526C502.361 219.423 504.275 195.115 506.222 191.001C507.057 189.234 494.697 188.861 492.098 188.028C488.072 186.745 437.872 178.545 432.872 178.545C429.538 178.933 427.441 181.049 425.208 182.621C422.518 184.524 421.995 191.108 422.156 194.517C422.185 195.271 422.176 196.026 422.13 196.779C411.399 194.763 389.673 192.955 385.072 200.903C384.553 201.269 384.089 201.709 383.696 202.208C383.488 202.472 383.294 202.74 383.111 203.007C378.957 202.743 374.63 202.776 372.167 202.171C372.167 202.171 370.249 202.171 370.041 202.153C370.235 199.297 370.334 197.336 370.334 197.336C359.185 193.67 313.629 174.329 280.21 158.811C280.373 158.801 280.533 158.758 280.678 158.683H279.913C266.148 152.286 254.476 146.552 248.17 142.857C243.013 139.836 238.23 138.432 234.079 138.322C234.101 138.154 234.123 137.989 234.149 137.82C234.149 137.765 234.149 137.71 234.174 137.651C234.196 137.501 234.218 137.351 234.244 137.201C234.244 137.135 234.266 137.069 234.277 136.999C234.299 136.86 234.324 136.72 234.35 136.581C234.35 136.508 234.379 136.434 234.39 136.361C234.416 136.229 234.445 136.097 234.471 135.969C234.496 135.84 234.504 135.811 234.522 135.734C234.54 135.657 234.577 135.485 234.606 135.368C234.635 135.25 234.646 135.206 234.668 135.129C234.69 135.052 234.731 134.891 234.76 134.763C234.789 134.634 234.807 134.601 234.829 134.521C234.851 134.44 234.895 134.293 234.932 134.18L235.009 133.938C235.045 133.828 235.082 133.718 235.122 133.608C235.162 133.498 235.177 133.454 235.206 133.373C235.236 133.293 235.291 133.161 235.334 133.058C235.378 132.955 235.393 132.904 235.426 132.831C235.459 132.757 235.517 132.625 235.565 132.523L235.664 132.31C235.715 132.208 235.77 132.109 235.825 132.006C235.88 131.903 235.891 131.878 235.927 131.815L236.118 131.5L236.213 131.346C236.312 131.196 236.414 131.053 236.524 130.91C237.862 129.043 238.866 126.958 239.492 124.747C239.576 124.381 239.664 124.033 239.748 123.648C243.965 126.313 248.679 129.147 254.469 134.041C265.976 143.785 283.017 144.84 293.119 131.588C298.524 124.487 298.759 112.844 294.905 105.215C285.67 86.9372 272.63 87.5677 253.547 88.1763C247.423 88.3742 238.585 80.1883 226.067 80.1883C216.076 80.1883 203.137 91.186 211.98 105.883C212.28 103.291 213.616 101.249 214.688 99.4306C216.559 96.2706 217.551 95.6144 218.268 96.3586C216.255 98.1663 214.887 100.584 214.374 103.243C213.034 109.922 209.802 117.797 209.25 123.31C208.635 129.385 210.79 132.768 214.374 136.013C215.944 137.424 215.871 139.206 215.816 140.723C215.727 141.835 215.554 142.938 215.3 144.023C211.563 144.756 207.614 147.377 204.448 152.066C197.227 162.748 182.572 181.096 172.284 188.311C167.182 191.892 163.006 193.483 156.948 191.731C152.505 190.448 120.235 179.971 119.81 180.796C119.675 181.056 119.492 181.437 119.272 181.914C118.683 181.547 117.223 181.18 116.531 180.726C111.33 177.353 110.84 177.108 107.172 171.513C104.954 168.126 101.916 167.092 99.1715 167.144C97.1621 162.682 95.065 158.159 93.4399 155.105C91.7673 151.963 89.5347 150.167 87.4961 152.033C86.2773 153.133 80.963 157.081 78.368 160.677C75.7036 164.372 76.9406 167.613 78.5474 171.268C75.5755 172.474 76.56 176.122 77.7824 178.376C79.1659 180.942 79.0488 178.064 79.1623 181.807C79.2062 183.296 82.4563 184.373 82.954 186.613C83.17 187.588 87.346 191.537 88.25 191.782C88.616 192.457 88.982 193.142 89.348 193.854C93.1654 200.914 95.7055 198.722 99.596 193.333C99.8449 192.992 100.108 192.6 100.379 192.193C100.379 192.38 100.507 192.479 100.745 192.453C105.21 191.966 111.971 194.697 113.694 194.345C114.148 194.253 116.908 186.764 118.427 183.791C115.726 189.975 110.741 202.52 112.135 202.985C125.791 207.52 128.539 208.195 155.689 215.028C170.106 218.657 178.22 219.06 186.847 211.278C191.155 207.392 195.408 203.422 199.609 199.492C199.148 217.634 199.093 238.578 199.027 253.678C170.285 277.733 93.5534 352.844 95.3761 355.278C96.1337 356.283 97.1109 357.452 98.2455 358.717C95.5151 361.041 92.7848 363.721 91.2915 365.843C91.6978 364.285 92.2065 362.83 92.3126 361.635C92.3529 361.213 76.732 362.141 74.2835 362.269L73.7052 362.042C69.9976 361.36 54.0071 352.481 53.5935 352.463C50.0653 352.298 47.8729 352.441 46.72 353.093C42.91 354.523 40.0844 359.325 41.0287 360.993C43.2467 364.835 49.4101 373.798 57.8611 381.262ZM469.516 267.428C477.392 269.21 484.679 270.94 487.029 272L469.516 267.428ZM426.189 212.564C424.677 220.545 422.485 227.041 420.249 233.269L421.537 226.513C423.733 218.056 427.353 204.019 429.9 193.241C428.22 201.856 426.427 211.292 426.189 212.564ZM102.48 174.593C104.102 177.218 104.676 177.833 105.042 180.301C104.413 178.13 103.212 176.184 102.989 175.726C102.813 175.359 102.645 174.981 102.48 174.593ZM104.731 185.129C105.016 184.7 105.212 184.219 105.309 183.714C105.284 184.85 104.907 185.18 103.714 186.771C104.076 186.17 104.42 185.613 104.727 185.129H104.731ZM99.3984 377.274C99.1808 377.263 98.9649 377.23 98.7542 377.175C92.6823 375.342 90.9401 372.592 90.7828 369.748C92.3968 372.204 96.0971 375.657 99.3984 377.274Z" fill="white"/>
<path d="M238.372 330.764L242.142 330.592L241.593 329.859L241.055 329.126L238.303 329.25C228.055 329.731 218.377 330.178 205.966 330.185C205.472 329.408 204.685 325.969 203.719 318.846L203.024 319.33L202.325 319.818C203.196 325.98 204.114 330.449 204.971 331.34C205.067 331.451 205.185 331.542 205.318 331.605C205.451 331.668 205.596 331.703 205.743 331.706C218.297 331.699 228.047 331.245 238.372 330.764Z" fill="#0C0F53"/>
<path d="M213.744 99.5078L214.022 99.0422C215.585 96.3954 216.628 95.3213 217.657 95.3213C217.72 95.3176 217.784 95.3176 217.847 95.3213C217.886 95.3259 217.924 95.3345 217.96 95.347C217.532 91.2448 218.348 88.2131 220.237 87.5165L220.757 88.9316C219.908 89.2432 219.15 91.1605 219.392 94.5075C219.41 94.7861 219.435 95.0683 219.472 95.3653C219.509 95.6622 219.542 95.9225 219.586 96.2158C219.71 97.0113 219.875 97.8618 220.109 98.7819C220.189 99.0495 220.27 99.3245 220.354 99.6177C220.936 101.608 221.661 104.09 222.964 106.169C228.563 115.088 233.431 118.721 239.232 122.427L239.909 122.856L240.583 123.281L241.366 123.776C245.257 126.218 249.667 128.985 254.941 133.454C261.2 138.755 268.988 141.336 276.305 140.537C282.75 139.833 288.35 136.574 292.507 131.119C297.441 124.638 298.195 113.402 294.22 105.538C285.308 87.8941 272.926 88.3084 254.187 88.8949L253.547 88.9133C250.813 89.0049 247.647 87.5605 243.998 85.8889C239.163 83.6893 233.146 80.9289 226.064 80.9289C220.464 80.9289 214.352 84.5252 211.57 89.4815C209.832 92.5609 208.551 97.4439 211.673 103.753C212.196 102.262 212.891 100.837 213.744 99.5078Z" fill="#0C0F53"/>
<path d="M76.0769 172.764C75.2827 174.963 76.5308 177.68 77.1017 178.735C77.5848 179.622 77.9618 180.022 78.3351 180.22C78.3534 180.499 78.3681 180.979 78.3864 181.576V181.829C78.4193 182.87 79.3014 183.607 80.2383 184.395C81.0984 185.129 81.9878 185.862 82.1964 186.786C82.4526 187.948 86.1749 191.551 87.6864 192.361C88.0049 192.963 88.3343 193.575 88.6746 194.194C90.4278 197.435 91.9869 198.931 93.7254 199.044H93.9194C96.1776 199.044 98.1723 196.541 100.185 193.747C100.317 193.571 100.449 193.381 100.584 193.179C100.665 193.188 100.746 193.188 100.826 193.179C103.318 192.908 106.653 193.714 109.332 194.363C110.563 194.707 111.82 194.952 113.09 195.096C110.719 201.721 111.092 202.637 111.26 203.059C111.315 203.202 111.401 203.331 111.511 203.437C111.621 203.544 111.753 203.625 111.897 203.674C125.392 208.158 128.137 208.851 154.401 215.46L155.499 215.735C161.622 217.275 166.673 218.232 171.12 218.232C177.254 218.232 182.246 216.417 187.341 211.816C191.206 208.33 195.053 204.749 198.808 201.24C198.42 217.561 198.343 235.927 198.284 249.975C198.284 251.111 198.284 252.222 198.284 253.3L199.038 252.669C199.294 252.457 199.543 252.248 199.792 252.046C199.792 251.368 199.792 250.682 199.792 249.979C199.822 243.094 199.854 235.165 199.928 226.949C202.856 226.975 205.743 227.059 208.671 227.199C207.669 235.74 206.97 243.347 207.207 246.434L207.636 246.181C207.727 246.129 207.826 246.078 207.932 246.03C208.17 245.914 208.415 245.812 208.664 245.723C208.298 236.217 214.743 193.74 214.813 193.3L214.875 192.875L214.542 192.603C213.404 191.688 212.319 190.709 211.292 189.671C210.926 189.304 210.589 188.938 210.267 188.571C203.76 181.177 205.875 175.271 207.965 169.53C208.39 168.361 208.825 167.147 209.18 165.952C211.376 158.514 212.427 155.552 215.622 149.045C216.485 147.945 217.642 147.538 218.996 147.476C217.997 150.57 217.898 154.177 218.762 157.997C219.684 162.03 221.375 168.452 223.612 176.528C223.765 177.082 223.919 177.628 224.08 178.215C228.801 195.181 235.737 218.789 242.955 242.368L243.182 243.101C243.244 243.307 243.306 243.512 243.372 243.717C243.372 243.761 243.397 243.802 243.408 243.846C241.556 243.923 239.207 244.018 236.601 244.143C231.817 244.373 226.166 244.7 221.13 245.169C217.02 245.554 213.323 246.03 210.845 246.635C209.986 246.812 209.153 247.099 208.368 247.489L208.225 247.57C206.461 248.597 203.529 250.847 199.77 253.989L199.016 254.62L198.262 255.258C185.489 266.09 164.7 285.593 147.454 302.236C119.323 329.393 97.5465 351.814 96.1484 355.025C96.7742 355.839 97.5025 356.723 98.3114 357.646L98.8202 358.211L99.3289 358.772C103.307 363.126 107.668 367.113 112.358 370.686L112.984 371.148C113.2 371.302 113.409 371.452 113.621 371.599C117.256 374.165 120.418 375.631 122.039 374.972C126.651 373.073 145.331 359.377 165.106 344.878C179.746 334.133 192.282 325.001 202.094 318.15L202.801 317.655L203.496 317.171C213.239 310.404 220.127 306.045 223.538 304.81C222.682 303.116 221.708 301.195 220.746 299.226C218.319 294.358 215.296 288.298 214.78 287.705C214.842 287.769 214.919 287.818 215.003 287.847L215.538 286.443C216.05 286.638 216.387 287.118 222.089 298.541C223.103 300.576 224.128 302.636 225.039 304.432H225.127C225.208 304.426 225.29 304.426 225.372 304.432C225.539 304.454 225.699 304.51 225.843 304.596C225.987 304.683 226.112 304.798 226.21 304.934C228.933 308.82 231.334 312.361 233.636 315.785C236.908 320.628 239.858 324.987 242.87 329.012L243.419 329.745L243.976 330.478C258.349 349.123 275.499 360.781 337.851 381.497C338.093 381.024 338.488 380.258 339.03 379.213C339.136 379.004 339.253 378.777 339.396 378.546C339.538 378.315 339.619 378.113 339.74 377.886C341.16 375.17 343.275 371.174 346.075 366.027C346.196 365.81 346.317 365.587 346.441 365.363L346.807 364.7L348.143 362.258C347.111 361.338 344.304 359.538 340.863 357.331C331.607 351.396 316.367 341.615 304.168 329.5H305.266H306.309L374.952 328.928L374.652 327.96C372.164 319.979 343.294 267.498 313.896 221.571V221.011H313.53C308.63 213.363 303.718 205.907 298.916 198.872C309.043 202.82 319.222 206.486 329.089 210.035C344.245 215.49 357.333 220.2 366.055 224.449C366.219 224.527 366.4 224.564 366.582 224.556C366.764 224.548 366.941 224.497 367.098 224.405C367.482 224.174 368.145 223.778 368.928 219.61C373.39 220.046 375.681 222.686 377.891 225.248C379.996 227.683 382.02 230.014 385.577 230.014C386.972 230.014 388.597 229.647 390.555 228.793L391.108 228.54C391.496 228.357 391.895 228.155 392.308 227.936C392.612 228.031 392.916 228.126 393.227 228.214C395.812 228.937 398.434 229.519 401.081 229.959C402.827 230.263 404.573 230.535 406.3 230.802C408.207 231.092 410.07 231.381 411.856 231.704C412.588 231.84 413.32 231.979 414.052 232.129L414.784 232.291L415.516 232.459C416.713 232.745 417.855 233.064 418.927 233.434L419.337 233.581L419.517 233.643L419.55 233.555L419.663 233.596C419.868 233.665 420.077 233.731 420.278 233.805L419.755 235.212L419.231 235.025L418.865 234.901L418.521 234.787C417.445 234.446 416.325 234.146 415.121 233.878L414.389 233.717L413.657 233.566C413.379 234.51 413.082 235.44 412.768 236.356C409.108 235.366 403.149 233.031 398.717 231.037C396.579 230.622 394.466 230.092 392.385 229.45L392.689 229.655C395.408 231.488 406.403 236.162 412.274 237.778C411.651 239.527 410.982 241.254 410.301 243.013C408.5 247.68 406.641 252.501 405.111 258.663L404.598 260.727L404.91 260.489C404.91 260.54 404.91 260.588 404.932 260.635C405.155 261.607 406.322 261.93 407.311 262.102C414.433 263.33 426.489 266.398 439.251 269.65C456.556 274.049 474.45 278.606 480.478 278.606C481.879 278.606 489.09 274.445 489.994 272.843C490.097 272.687 490.155 272.506 490.162 272.319C490.169 272.132 490.125 271.947 490.034 271.783C489.993 271.723 489.947 271.666 489.895 271.615C491.787 268.261 494.02 259.778 497.105 246.628L497.16 246.382C499.682 246.287 502.262 246.225 504.817 246.159C512.697 245.961 520.844 245.759 527.011 244.711L526.762 243.244C520.701 244.271 512.605 244.476 504.78 244.67C502.361 244.733 499.916 244.791 497.519 244.879C498.035 242.68 498.434 241.045 498.617 240.48C499.219 238.599 499.708 236.683 500.081 234.743C503.572 234.593 506.892 234.3 508.4 233.819L507.942 232.386C506.643 232.8 503.642 233.075 500.384 233.229C501.61 226.861 502.665 218.565 503.631 210.988C504.776 201.966 505.86 193.447 506.877 191.298C506.957 191.137 506.995 190.958 506.99 190.777C506.984 190.597 506.934 190.421 506.844 190.265C506.215 189.132 503.378 188.699 497.5 188.043C495.26 187.794 493.141 187.555 492.299 187.288C488.53 186.078 441.758 178.336 433.582 177.797V177.676L432.788 177.768H432.762C432.685 177.768 432.612 177.789 432.539 177.8C429.768 178.189 427.781 179.696 426.024 181.034C425.589 181.367 425.175 181.683 424.754 181.98C421.724 184.117 421.222 191.122 421.383 194.524C421.402 194.95 421.402 195.408 421.383 195.873C410.524 193.978 389.406 192.273 384.468 200.368C383.948 200.753 383.48 201.205 383.078 201.713C382.95 201.875 382.829 202.039 382.712 202.204C381.614 202.138 380.494 202.091 379.418 202.047C376.625 201.93 373.986 201.82 372.332 201.413C372.14 201.379 371.944 201.371 371.75 201.387H370.824C370.981 198.986 371.062 197.38 371.066 197.354L371.095 196.779L370.55 196.599C359.602 193.014 313.82 173.588 280.287 158.016H280.323H280.276C266.558 151.641 254.901 145.918 248.532 142.179C243.818 139.415 239.156 137.879 234.917 137.589C235.283 135.21 235.909 132.889 237.113 131.357C238.517 129.408 239.568 127.226 240.217 124.912C240.217 124.89 240.217 124.868 240.217 124.846L239.547 124.421L238.877 124C232.718 120.092 227.612 116.415 221.675 106.986C220.259 104.728 219.501 102.136 218.894 100.054C218.656 99.2363 218.363 98.2209 218.081 97.5537C217.996 97.3044 217.863 97.0742 217.69 96.8755C217.67 96.8561 217.648 96.84 217.624 96.8278C217.587 96.8278 216.98 96.9635 215.296 99.8155L215.014 100.288C214.571 101.022 214.103 101.824 213.697 102.675C213.664 102.814 213.627 102.954 213.598 103.097C213.309 104.541 212.924 106.055 212.5 107.587L212.434 108.163L212.368 108.053C211.98 109.435 211.563 110.824 211.149 112.199C209.93 116.232 208.778 120.066 208.459 123.237C207.804 129.689 210.139 133.234 213.843 136.57C215.139 137.739 215.087 139.228 215.036 140.698C214.967 141.602 214.834 142.5 214.637 143.385C210.695 144.32 206.797 147.212 203.796 151.652C197.025 161.667 182.352 180.315 171.823 187.702C166.991 191.097 163.039 192.724 157.128 191.001C156.004 190.675 153.05 189.748 149.31 188.571C143.933 186.881 136.562 184.564 130.644 182.793C119.605 179.494 119.481 179.729 119.111 180.444C119.045 180.572 118.968 180.73 118.881 180.913C118.701 180.84 118.515 180.77 118.306 180.693C117.823 180.532 117.355 180.33 116.908 180.088L116.575 179.872C111.773 176.759 111.271 176.433 107.773 171.092C105.353 167.386 102.114 166.484 99.6437 166.396C97.6892 162.085 95.6689 157.722 94.0878 154.753C93.1691 153.03 91.6685 150.904 89.7287 150.57C89.2308 150.491 88.7212 150.532 88.2424 150.69C87.7637 150.848 87.3296 151.119 86.9764 151.479C86.7239 151.71 86.2444 152.088 85.6734 152.579C83.4774 154.372 79.8174 157.367 77.7459 160.248C75.0045 164.046 76.0586 167.43 77.5629 170.931C76.8716 171.352 76.3467 171.999 76.0769 172.764ZM186.323 210.706C177.982 218.232 170.183 217.891 155.85 214.284L154.771 214.012C128.722 207.454 125.857 206.728 112.629 202.34C112.574 201.607 113.061 199.825 113.822 197.574C118.731 197.857 133.473 197.941 150.521 198.011C167.017 198.091 186.023 198.183 198.863 198.502C198.863 198.722 198.863 198.938 198.863 199.158C194.756 202.963 190.543 206.893 186.323 210.706ZM345.804 188.479C345.288 188.57 344.765 188.618 344.241 188.622C337.741 188.362 331.409 189.146 325.29 189.905C323.142 190.173 320.916 190.448 318.702 190.675C309.314 191.647 299.772 192.142 290.308 192.46C288.291 191.463 285.941 190.342 283.438 189.161C276.696 186.034 268.216 182.357 265.533 181.664L265.167 183.131C268.124 183.893 278.976 188.67 287.083 192.556C283.094 192.677 279.119 192.776 275.181 192.871L267.667 193.058L266.807 193.084L265.947 193.106C261.522 193.23 257.071 193.377 252.61 193.579L251.834 193.615L251.054 193.656C244.184 193.985 237.304 194.458 230.489 195.188C228.556 188.52 226.799 182.357 225.284 176.906C225.123 176.323 224.962 175.748 224.805 175.183C222.88 168.218 221.383 162.576 220.475 158.767C222.115 158.972 225.01 159.134 228.391 159.288L230.115 159.354C231.539 159.409 233.021 159.456 234.507 159.5L235.876 159.541L237.34 159.577L238.01 159.596L238.841 159.618H239.683C245.055 159.742 249.674 159.808 250.827 159.823C255.633 159.889 260.259 159.918 264.369 159.918C266.803 159.918 269.058 159.918 271.067 159.885C276.502 159.823 278.925 159.702 280.06 159.555C301.086 169.336 326.838 180.565 345.804 188.479ZM369.536 197.871C369.466 199.18 369.389 200.5 369.305 201.812L367.552 218.855C367.186 220.985 366.82 222.473 366.454 223.001C362.029 220.864 356.532 218.602 350.248 216.219C354.237 215.119 363.361 214.328 366.966 214.328V212.825C364.075 212.825 351.507 213.66 348.132 215.416C342.466 213.287 336.215 211.017 329.569 208.642C319.174 204.903 308.432 201.035 297.781 196.845C297.565 196.394 296.654 195.716 293.228 193.93L293.097 193.865C301.69 193.542 310.335 193.054 318.867 192.171C321.088 191.944 323.321 191.665 325.48 191.397C331.819 190.609 337.804 189.869 344.187 190.125C345.56 190.09 346.923 189.876 348.242 189.491C357.912 193.487 365.572 196.515 369.536 197.86V197.871ZM289.199 296.389C288.302 293.759 287.612 291.062 287.134 288.324C286.732 286.165 281.451 268.477 280.276 264.547C282.98 263.975 290.579 263.425 298.286 263.264C310.482 263.015 314.808 263.81 315.488 264.298C315.796 265.452 317.22 268.601 319.17 272.909C322.098 279.409 326.15 288.306 328.32 294.846L328.353 294.952C328.525 295.469 328.679 295.967 328.822 296.451C330.26 301.349 330.286 304.736 328.877 306.771C327.826 308.292 325.949 309.088 323.174 309.198C303.751 309.968 294.597 309.605 289.777 297.885C289.568 297.397 289.382 296.902 289.199 296.389ZM329.733 294.354C327.537 287.756 323.478 278.804 320.521 272.275C318.691 268.242 317.11 264.745 316.905 263.843C316.85 263.646 316.754 263.464 316.622 263.308C316.49 263.152 316.325 263.027 316.14 262.941C311.902 260.602 282.655 262.036 279.082 263.308L278.409 263.546L278.614 264.232C278.68 264.452 285.231 286.293 285.656 288.595C286.127 291.261 286.794 293.888 287.651 296.455L286.077 296.51L285.279 296.536L284.492 296.565L281.853 296.646L281.088 296.668L280.316 296.69C274.518 296.855 268.699 296.957 262.748 296.957V298.457C268.845 298.457 274.789 298.347 280.711 298.178L281.483 298.156L282.248 298.134L285.037 298.046L285.824 298.02L286.615 297.991L288.214 297.936C290.3 303.197 293.199 306.492 297.276 308.432C301.354 310.371 306.591 310.946 313.329 310.946C316.316 310.946 319.606 310.836 323.237 310.693C326.483 310.565 328.796 309.528 330.114 307.618C331.743 305.257 331.83 301.584 330.385 296.433C335.922 296.396 341.925 296.433 347.495 296.459C350.84 296.477 354.003 296.495 356.777 296.495C365.257 311.786 371.161 323.257 372.837 327.458L304.761 328.026H303.74H302.678L294.407 328.096H293.521H292.621L273.516 328.253C269.57 320.617 259.992 291.854 249.974 259.789C254.897 259.143 259.966 258.828 265.039 258.648L265.939 258.619L266.836 258.59C267.988 258.556 269.141 258.528 270.295 258.506L271.067 258.487H271.843L275.503 258.425C282.783 258.3 290.315 258.176 297.679 257.461C302.869 256.959 309.479 257.193 315.873 257.42C322.267 257.648 328.946 257.882 334.144 257.365V257.208C342.298 270.86 349.768 283.863 355.95 294.967C353.388 294.967 350.522 294.967 347.51 294.934C341.786 294.901 335.607 294.871 329.942 294.912C329.854 294.736 329.799 294.549 329.733 294.354ZM333.353 255.932C328.35 256.365 322.036 256.141 315.917 255.932C309.475 255.701 302.814 255.466 297.525 255.98C290.205 256.687 282.724 256.812 275.47 256.933L271.422 257.006H270.65H269.874C268.512 257.036 267.15 257.072 265.786 257.116L264.882 257.145L263.974 257.178C259.106 257.369 254.246 257.695 249.51 258.33C248.144 253.956 246.772 249.531 245.41 245.085C245.334 244.835 245.257 244.59 245.184 244.351C245.11 244.113 245.063 243.963 245.004 243.769C245.004 243.717 244.971 243.666 244.957 243.611C244.894 243.417 244.836 243.222 244.777 243.028C244.7 242.779 244.624 242.533 244.55 242.295C242.658 236.136 240.781 229.944 238.962 223.881C241.484 223.489 244.027 223.244 246.578 223.148C246.061 223.546 245.73 224.332 245.586 225.505C245.465 226.535 246.113 229.486 247.592 230.271C247.841 230.405 248.118 230.476 248.401 230.48C248.869 230.467 249.316 230.281 249.656 229.959C250.97 228.859 250.633 226.7 249.945 225.193C249.55 224.336 248.939 223.467 248.214 223.078C251.651 222.913 255.717 222.792 260.12 222.712L260.9 222.693H261.679C266.887 222.598 272.505 222.543 278.076 222.514H279.624C289.872 222.47 299.813 222.514 306.511 222.514L312.696 222.536C319.8 233.621 326.791 244.971 333.353 255.932ZM248.851 226.495C249.107 227.323 249.217 228.364 248.69 228.801C248.452 229.006 248.368 228.962 248.324 228.929C247.617 228.562 247.017 226.363 247.101 225.659C247.211 224.739 247.416 224.446 247.467 224.372C247.727 224.457 248.445 225.204 248.851 226.498V226.495ZM306.511 220.996C299.344 220.97 289.429 220.93 279.331 220.974H277.772C272.128 221.003 266.47 221.062 261.24 221.165H260.46H259.681C249.879 221.374 241.798 221.747 238.526 222.396C235.825 213.385 233.248 204.657 230.913 196.61C237.743 195.877 244.646 195.419 251.541 195.093L252.321 195.056L253.096 195.019C257.682 194.814 262.246 194.653 266.81 194.543L267.667 194.521L268.523 194.495L275.214 194.33C280.093 194.209 285.026 194.088 289.986 193.923C292.672 195.25 294.795 196.372 295.842 197.036L296.281 197.677C301.405 205.134 306.606 212.982 311.744 220.978L306.511 220.996ZM238.929 158.107L238.079 158.085L237.241 158.052L235.012 157.99L233.731 157.953L232.502 157.913C231.356 157.876 230.262 157.836 229.23 157.796L227.264 157.715C223.721 157.557 221.145 157.381 220.124 157.194C219.392 153.642 219.553 150.313 220.559 147.502C220.647 147.256 220.746 147.014 220.848 146.769C220.951 146.523 221.06 146.285 221.178 146.035C221.273 145.845 221.364 145.669 221.47 145.467C221.47 145.43 221.511 145.394 221.533 145.357L221.558 145.317C221.675 145.112 221.803 144.91 221.924 144.712C221.946 144.682 221.965 144.65 221.983 144.617C222.082 144.474 222.188 144.338 222.29 144.195L222.473 143.949C223.148 143.07 223.942 142.29 224.834 141.633C227.154 139.928 230.017 139.066 233.212 139.019H233.472H233.966C234.215 139.019 234.467 139.037 234.72 139.055C238.746 139.308 243.218 140.782 247.768 143.455C253.792 146.985 264.534 152.297 277.274 158.25C270.251 158.573 252.804 158.444 238.929 158.107ZM212.624 197.699C210.794 197.461 207.533 197.277 203.222 197.127L201.092 197.061L200.403 197.043C200.455 195.265 200.51 193.516 200.568 191.815C200.634 189.883 200.674 187.867 200.718 185.73C200.835 179.941 200.967 173.585 201.662 167.653C203.58 167.653 205.498 167.653 207.024 167.672L206.541 169.028C204.404 174.915 202.032 181.514 209.144 189.579C209.466 189.946 209.806 190.312 210.168 190.679C211.143 191.676 212.172 192.618 213.25 193.502C213.14 194.209 212.921 195.675 212.624 197.681V197.699ZM207.723 165.534C207.662 165.747 207.597 165.96 207.526 166.172C206.062 166.15 203.987 166.128 201.853 166.136C202.98 157.851 205.337 150.592 210.501 147.179C211.635 146.437 212.885 145.89 214.198 145.559C213.737 147.729 213.543 148.77 213.832 149.302C210.911 155.27 209.839 158.338 207.723 165.516V165.534ZM199.92 225.472C200.001 216.901 200.125 208.074 200.33 199.811C200.33 199.378 200.341 198.949 200.363 198.524L201.67 198.561C206.713 198.711 210.516 198.905 212.408 199.158C211.471 205.599 209.982 216.098 208.829 225.71C205.842 225.567 202.914 225.479 199.92 225.454V225.472ZM480.452 277.143C474.596 277.143 456.808 272.612 439.595 268.231C426.804 264.976 414.707 261.9 407.541 260.657C407.144 260.615 406.758 260.5 406.403 260.316C406.644 259.8 408.204 258.674 409.36 257.838C410.879 256.739 412.566 255.518 413.84 254.172C416.153 255.943 424.864 258.062 439.508 261.196C442.732 261.885 445.279 262.428 445.946 262.663C448.874 263.627 456.051 265.229 463.649 266.93C473.095 269.041 486.026 271.934 487.194 272.99C487.296 273.081 487.412 273.157 487.538 273.213C485.455 274.709 481.254 277.066 480.452 277.125V277.143ZM497.343 189.572C500.018 189.869 504.388 190.356 505.413 190.95C504.337 193.615 503.32 201.618 502.148 210.83C501.168 218.529 500.092 226.979 498.854 233.321C495.253 233.445 491.611 233.42 489.807 233.262L489.675 234.758C490.682 234.849 492.395 234.897 494.4 234.897C495.7 234.897 497.116 234.875 498.547 234.831C498.196 236.588 497.742 238.322 497.189 240.026C496.962 240.682 496.534 242.467 495.945 244.967C491.91 245.085 487.885 245.428 483.889 245.994L484.127 247.46C487.927 246.918 491.753 246.586 495.59 246.467C494.525 251.001 493.083 257.142 491.633 262.281C489.946 268.257 488.907 270.482 488.372 271.311H487.358C484.595 270.057 476.378 268.169 463.982 265.397C456.417 263.707 449.276 262.098 446.414 261.171C445.682 260.925 443.219 260.401 439.826 259.671C435.335 258.714 429.19 257.398 424.088 256.097C416.64 254.194 415.037 253.234 414.693 252.897C416.157 246.778 418.064 241.507 420.084 235.931C422.606 228.966 425.208 221.766 426.932 212.685C427.367 210.379 429.055 201.552 430.621 193.48C432.158 186.973 433.319 181.602 433.549 179.296C441.554 179.828 488.577 187.669 491.846 188.714C492.834 189.048 494.924 189.282 497.343 189.553V189.572ZM404.013 195.804C409.809 195.852 415.591 196.386 421.299 197.398V197.417L422.031 197.549L422.763 197.684L423.243 197.776C424.458 198.029 425.482 198.275 426.251 198.509V198.458C426.485 198.52 426.701 198.579 426.895 198.638L426.471 200.078C425.526 199.803 424.198 199.492 422.595 199.18L421.863 199.044L421.131 198.912C420.948 200.467 420.662 202.146 420.315 203.891C418.082 203.546 415.114 202.765 411.739 201.878C405.883 200.342 399.295 198.601 393.695 198.363C391.947 198.72 390.262 199.338 388.696 200.196C394.647 198.931 404.028 201.394 411.359 203.323C414.733 204.21 417.705 204.994 420.007 205.357C419.33 208.517 418.492 211.824 417.698 214.954C416.622 219.178 415.696 222.825 415.374 225.314C415.136 227.131 414.801 228.934 414.371 230.714C411.886 230.186 409.247 229.772 406.483 229.351C402.143 228.683 397.67 227.99 393.498 226.784C393.536 226.607 393.536 226.423 393.498 226.246L392.718 226.22L391.946 226.183H391.58L390.368 226.11C389.765 226.066 389.161 226.022 388.568 225.971L387.905 225.908H387.806C387.188 225.85 386.599 225.784 386.053 225.718C384.641 225.545 383.554 225.351 383.206 225.175L383.894 223.837C384.181 223.929 384.477 223.994 384.776 224.031C385.08 224.079 385.446 224.13 385.874 224.182L386.277 224.229L386.873 224.295L388.414 224.449H388.586C389.896 224.567 391.298 224.666 392.546 224.728L393.608 224.772C394.076 224.772 394.508 224.794 394.878 224.794C395.112 224.644 395.379 224.479 395.694 224.292C397.264 223.375 396.934 221.839 396.642 220.486C396.349 219.134 396.001 217.521 397.11 215.79C398.468 213.668 394.182 205.962 394.127 205.892C392.894 203.85 389.776 202.978 386.148 202.549C385.841 202.512 385.526 202.479 385.211 202.45C385.218 202.421 385.227 202.393 385.237 202.366C385.339 202.055 385.469 201.755 385.625 201.468C386.236 200.384 387.119 199.479 388.187 198.843L388.348 198.755H388.312C392.133 196.379 398.549 195.811 404.017 195.811L404.013 195.804ZM202.625 155.97C201.526 159.269 200.762 162.672 200.345 166.125C198.262 166.147 196.242 166.198 194.774 166.304C197.713 162.646 200.403 159.075 202.625 155.97ZM120.268 181.514C123.148 181.914 140.398 187.339 148.878 190.004C152.626 191.181 155.583 192.112 156.725 192.442C163.181 194.308 167.624 192.479 172.701 188.916C179.011 184.487 186.763 176.114 193.46 167.917C194.192 167.749 197.036 167.664 200.155 167.635C199.466 173.585 199.335 179.901 199.218 185.671C199.174 187.801 199.133 189.814 199.068 191.731C199.009 193.439 198.954 195.192 198.903 196.973C186.269 196.654 167.694 196.563 150.529 196.478C133.967 196.398 119.583 196.328 114.331 196.068C115.7 192.2 117.625 187.464 119.031 184.23C119.185 183.908 119.361 183.595 119.558 183.296C119.609 183.222 119.653 183.143 119.689 183.061C119.852 182.985 119.992 182.866 120.093 182.717C120.194 182.568 120.253 182.394 120.264 182.214C120.272 182.053 120.234 181.893 120.154 181.752C120.195 181.683 120.231 181.598 120.268 181.514ZM78.961 161.117C80.9264 158.397 84.4913 155.479 86.6214 153.734C87.2253 153.239 87.7194 152.847 87.9902 152.586C88.3152 152.25 88.7565 152.05 89.2236 152.029C89.3071 152.029 89.3903 152.037 89.4725 152.051C90.5046 152.227 91.7051 153.47 92.7665 155.46C94.2635 158.269 96.1667 162.345 98.0333 166.458L97.7404 166.495C94.9149 166.898 92.0711 168.419 91.6612 169.754C91.2293 171.154 91.2952 172.192 91.8808 172.932C92.8727 174.193 94.9259 174.065 97.0999 173.926C98.9299 173.808 101.042 173.676 101.613 174.611L101.814 174.937L102.293 176.037C102.352 176.169 102.447 176.345 102.594 176.613C103.3 177.847 103.875 179.152 104.31 180.506C104.365 180.913 104.413 181.367 104.46 181.906C104.524 182.486 104.558 183.068 104.563 183.651C104.48 184.028 104.329 184.386 104.116 184.707C103.812 185.184 103.468 185.741 103.11 186.331C102.861 186.661 102.579 187.042 102.25 187.5L102.03 187.801C100.463 189.942 99.7571 191.126 99.6473 191.911C99.4204 192.252 99.1971 192.574 98.9922 192.86C96.9243 195.73 95.2553 197.626 93.8426 197.53C92.708 197.457 91.4562 196.126 90.0179 193.461C89.6519 192.757 89.2859 192.079 88.9199 191.412L79.2172 170.956C77.6397 167.378 76.5417 164.475 78.961 161.117Z" fill="#0C0F53"/>
<path d="M68.8298 151.787L69.3202 150.354C68.2222 149.987 66.8278 149.133 65.3382 148.239C63.8485 147.344 62.2345 146.376 60.8656 145.867L60.3423 147.274C61.583 147.736 63.0982 148.649 64.5659 149.529C66.1251 150.478 67.5964 151.362 68.8298 151.787Z" fill="#0C0F53"/>
<path d="M80.886 141.611L80.9189 141.655C80.6737 141.288 78.5107 136.856 78.2508 136.284L76.86 136.915C76.882 136.966 79.4037 142.208 79.7038 142.571L80.886 141.611Z" fill="#0C0F53"/>
<path d="M93.33 140.335C94.3475 138.304 95.1344 136.694 95.2369 135.954L93.7473 135.749C93.6741 136.302 92.5761 138.487 91.9868 139.66C91.6977 140.236 91.4488 140.738 91.3133 141.035L92.6822 141.651C92.8066 141.383 93.0519 140.896 93.33 140.335Z" fill="#0C0F53"/>
<path d="M103.388 150.72C104.716 149.888 106.535 148.745 107.022 148.521L106.389 147.157C105.858 147.403 104.479 148.257 102.59 149.452C101.748 149.98 100.954 150.479 100.599 150.684L101.349 151.985C101.726 151.762 102.498 151.278 103.388 150.72Z" fill="#0C0F53"/>
<path d="M236.399 179.531C235.921 179.312 235.386 179.253 234.872 179.363C234.357 179.472 233.892 179.745 233.545 180.139C232.78 181.082 232.904 182.515 233.878 183.97C235.016 185.675 236.476 186.467 237.538 186.467C237.686 186.467 237.833 186.45 237.977 186.416C238.227 186.361 238.453 186.229 238.623 186.037C238.793 185.845 238.897 185.604 238.921 185.349C239.269 181.03 237.08 179.802 236.399 179.531ZM237.431 184.96C237.018 184.909 236.033 184.498 235.126 183.127C234.434 182.093 234.456 181.39 234.708 181.078C234.857 180.936 235.045 180.844 235.248 180.815C235.451 180.786 235.658 180.822 235.839 180.917C236.71 181.276 237.571 182.519 237.431 184.96Z" fill="#0C0F53"/>
<path d="M240.905 201.647C239.682 201.948 239.492 203.748 239.441 204.338C239.36 205.071 239.47 207.967 241.454 208.539C241.757 208.631 242.071 208.679 242.387 208.682C242.683 208.695 242.977 208.635 243.244 208.507C243.511 208.379 243.742 208.188 243.917 207.949C244.847 206.67 244.027 204.257 243.148 202.952C242.201 201.567 241.337 201.537 240.905 201.647ZM242.658 207.102C242.552 207.209 242.241 207.209 241.846 207.102C240.978 206.849 240.861 204.965 240.912 204.507C240.925 204.03 241.05 203.562 241.278 203.143C241.589 203.301 242.263 204.166 242.629 205.379C242.925 206.369 242.815 206.952 242.658 207.102Z" fill="#0C0F53"/>
<path d="M257.994 249.7C257.853 249.297 257.684 248.903 257.488 248.523C257.024 247.633 256.281 246.643 255.248 246.577H255.142H255.12C254.829 246.581 254.545 246.663 254.297 246.815C253.678 247.182 253.177 247.981 252.8 249.198C252.569 249.931 253.206 253.366 253.898 253.843C254.882 254.535 255.728 254.88 256.46 254.88C256.862 254.884 257.254 254.755 257.576 254.513C258.674 253.7 258.597 251.819 258.173 250.254C258.107 250.067 258.052 249.872 257.994 249.7ZM256.661 253.307C256.504 253.425 255.929 253.421 254.857 252.677C254.612 252.142 254.169 250.092 254.238 249.62C254.634 248.362 255.033 248.072 255.142 248.072C255.384 248.072 256.068 248.707 256.573 250.188C257.137 251.841 256.987 253.058 256.661 253.304V253.307Z" fill="#0C0F53"/>
<path d="M57.3633 381.827C59.1311 383.385 61.1075 385.214 63.1973 387.15C69.6536 393.121 76.9662 399.892 83.7812 404.075C84.8692 404.747 85.9099 405.493 86.8958 406.308C87.9499 407.151 88.7441 407.734 89.5823 407.734C90.3509 407.734 91.1561 407.239 92.2358 406C92.9161 405.235 93.6396 404.509 94.4025 403.826C95.5993 402.726 96.3899 401.993 96.2325 401.077C96.2115 400.949 96.1708 400.825 96.1117 400.71C97.2683 399.786 99.435 397.447 103.897 391.593C104.863 390.328 110.979 382.149 111.066 381.666C111.345 380.199 111.088 378.975 110.313 378.088C109.537 377.2 108.483 376.805 107.22 376.577C108.746 375.51 110.631 374.106 112.439 372.596L111.806 372.142L111.18 371.676C106.524 368.179 101.624 363.468 98.1833 359.729L97.6782 359.172L97.1731 358.611C95.6775 359.903 94.2494 361.273 92.8946 362.713C92.9718 362.372 93.028 362.027 93.0629 361.679L93.0849 361.312L92.847 361.067C92.481 360.7 92.2907 360.488 75.7109 361.408L74.4079 361.481L73.9797 361.312L73.8406 361.272C71.2969 360.803 62.2604 356.07 57.4035 353.526C53.9119 351.693 53.8899 351.693 53.6301 351.693C49.7432 351.513 47.5618 351.693 46.3101 352.426C43.4772 353.548 41.1861 356.338 40.4028 358.556C39.9893 359.703 39.9746 360.667 40.3626 361.349C42.7416 365.47 48.9672 374.425 57.3633 381.827ZM53.4617 353.192C53.8277 353.357 55.2405 354.094 56.7228 354.871C63.4755 358.409 70.887 362.203 73.5112 362.749L74.1773 363.01H74.3384L75.8024 362.929C84.44 362.449 89.7104 362.229 91.4672 362.266C91.3464 362.892 91.1451 363.593 90.9365 364.322C90.8267 364.689 90.7132 365.11 90.6034 365.528C90.1664 366.984 89.982 368.504 90.0581 370.023C90.3143 373.01 92.2175 376.005 98.531 377.897C98.7501 377.956 98.9744 377.994 99.2007 378.011C99.9148 378.06 100.631 378.06 101.346 378.011L101.884 377.985C102.491 377.952 103.15 377.919 103.823 377.904C104.31 377.904 104.801 377.904 105.287 377.904C106.938 377.967 108.464 378.249 109.2 379.092C109.643 379.598 109.785 380.309 109.632 381.262C108.149 383.513 96.8766 398.98 94.8344 399.793C91.9064 399.427 82.0793 392.267 70.2428 381.9C58.809 371.889 49.4028 362.291 47.8729 359.08C46.9396 357.122 46.0649 355.003 46.6431 354.131C47.1665 353.343 49.11 353.141 51.2328 353.141C51.9721 353.134 52.7334 353.159 53.4617 353.192ZM41.8376 359.058C42.5012 357.436 43.5776 356.017 44.9595 354.941C44.9852 356.198 45.5927 357.775 46.515 359.707C48.4219 363.706 59.6398 374.59 69.2546 383.011C73.9724 387.139 89.6006 400.534 94.6001 401.252C94.6442 401.273 94.687 401.296 94.7282 401.322C94.3273 401.827 93.8774 402.292 93.385 402.708C92.5794 403.426 91.8168 404.191 91.1012 404.999C90.3692 405.846 89.886 406.242 89.5493 406.216C89.2126 406.19 88.5868 405.721 87.8364 405.116C86.7992 404.265 85.7074 403.482 84.5681 402.774C77.8776 398.672 70.6198 391.952 64.2185 386.024C62.1213 384.085 60.1376 382.248 58.3625 380.679C50.1165 373.41 44.0079 364.626 41.6985 360.579C41.5704 360.389 41.5448 359.872 41.8376 359.062V359.058Z" fill="#0C0F53"/>
<path d="M329.433 419.652C330.019 420.652 331.263 421.822 333.96 421.705C336.156 421.609 338.755 421.822 341.489 422.049C343.945 422.251 346.51 422.46 349.007 422.46C353.845 422.46 358.431 421.668 361.451 418.482C367.936 411.634 370.213 407.272 373.364 401.252C374.433 399.2 375.644 396.879 377.156 394.218C379.472 390.141 383.114 382.765 381.504 379.162C381.267 378.638 380.907 378.18 380.453 377.828C379.999 377.476 379.467 377.24 378.901 377.142C378.412 377.03 377.948 376.827 377.533 376.544C377.202 376.298 376.822 376.125 376.42 376.036C376.018 375.947 375.601 375.944 375.198 376.027C374.444 374.928 372.829 373.872 370.191 372.24L369.671 371.918C369.089 371.551 368.43 371.133 367.72 370.679C361.498 366.676 356.111 363.508 353.545 365.319C353.196 365.587 352.909 365.928 352.706 366.319C352.503 366.71 352.388 367.141 352.37 367.581C351.181 366.896 349.764 366.14 348.15 365.382C348.029 365.602 347.905 365.825 347.784 366.045C347.663 366.265 347.543 366.489 347.418 366.709C344.615 371.859 342.495 375.873 341.068 378.582C340.947 378.813 340.834 379.037 340.72 379.246C340.607 379.455 340.486 379.704 340.354 379.917C341.236 380.324 342.236 380.749 343.282 381.13C343.226 381.191 343.175 381.256 343.129 381.325C342.624 382.058 342.539 384.327 342.539 389.148C342.539 390.632 341.075 399.559 340.501 400.538C339.974 401.032 339.386 401.456 338.751 401.799C337.979 402.279 336.921 402.939 335.501 403.965C335.109 404.226 334.701 404.461 334.279 404.669C332.815 405.435 331.003 406.388 330.531 408.647C330.48 408.889 330.37 409.266 330.253 409.666C329.927 410.766 329.521 412.089 329.62 413.079C328.924 414.428 328.196 417.525 329.433 419.652ZM332.028 408.933C332.354 407.367 333.7 406.663 335 405.978C335.487 405.739 335.957 405.466 336.405 405.16C337.781 404.167 338.773 403.551 339.567 403.056C340.248 402.673 340.886 402.219 341.471 401.7C342.415 401.549 345.222 401.077 345.592 401.014C350.09 400.255 350.09 400.255 350.288 400.028L349.695 399.508L349.534 398.807C349.168 398.884 344.527 399.672 342.247 400.05C343.129 396.916 344.077 390.035 344.077 389.126C344.077 387.234 344.077 382.806 344.399 382.16C344.556 381.933 345.101 382.017 345.976 382.16C347.043 382.422 348.151 382.461 349.234 382.274C350.749 381.94 352.363 380.852 353.724 377.985C354.019 377.359 354.279 376.718 354.504 376.064L354.61 375.749C354.976 374.741 355.342 373.663 355.342 372.655C355.357 371.954 355.116 371.273 354.665 370.737C354.498 370.54 354.309 370.361 354.101 370.206C354.039 369.913 353.988 369.634 353.951 369.37C353.906 369.056 353.877 368.741 353.863 368.424C353.834 367.467 354.024 366.811 354.438 366.518C356.385 365.143 363.248 369.55 366.937 371.914C367.669 372.376 368.32 372.801 368.91 373.168L369.429 373.491C372.335 375.287 373.938 376.28 374.187 377.288C374.436 378.297 373.492 379.95 371.772 382.934C370.89 384.463 369.795 386.365 368.529 388.759L368.437 388.931C357.044 410.458 352.528 412.987 351.111 413.075H351.064C338.762 413.841 332.2 413.53 331.157 412.906C331.095 412.228 331.479 410.931 331.739 410.054C331.849 409.625 331.962 409.237 332.028 408.933ZM376.749 377.816C377.307 378.186 377.927 378.451 378.579 378.597C378.914 378.644 379.232 378.776 379.502 378.98C379.773 379.184 379.987 379.453 380.124 379.763C381.09 381.918 379.491 387.04 375.845 393.459C374.319 396.142 373.1 398.477 372.024 400.538C368.928 406.469 366.695 410.751 360.353 417.445C356.272 421.756 348.48 421.111 341.606 420.55C338.821 420.319 336.193 420.103 333.887 420.183C332.339 420.249 331.27 419.817 330.721 418.875C329.989 417.595 330.256 415.575 330.721 414.336C331.775 414.725 333.968 415.051 338.63 415.051C341.646 415.051 345.702 414.915 351.14 414.574H351.192C354.87 414.347 361.114 405.956 369.748 389.646L369.839 389.474C371.095 387.102 372.182 385.214 373.056 383.696C374.817 380.639 375.772 378.854 375.706 377.464C376.085 377.454 376.454 377.579 376.749 377.816Z" fill="#0C0F53"/>
</svg>
